#N canvas 4 0 1920 966 12;
#X obj 30 54 netreceive -u -b;
#X msg 30 25 listen 8000;
#X obj 30 83 oscparse;
#X obj 30 112 list trim;
#X obj 30 143 unpack 0 0 0 0;
#X floatatom 61 175 5 0 0 0 - - - 0;
#X floatatom 471 175 5 0 0 0 - - - 0;
#X obj 340 262 *;
#X floatatom 510 257 5 0 0 0 - - - 0;
#X obj 385 343 *;
#X obj 510 287 expr if ($f1 >= 144 && $f1 <= 286 \, 1 \, 0);
#X text 263 367 Si 1 \, on fait un LA Sinon \, pas de son !;
#X text 220 285 Si 1 \, on fait un SI Sinon \, pas de son !;
#X floatatom 567 357 5 0 0 0 - - - 0;
#X obj 442 443 *;
#X obj 567 387 expr if ($f1 >= 287 && $f1 <= 429 \, 1 \, 0);
#X text 317 467 Si 1 \, on fait un SOL Sinon \, pas de son !;
#X floatatom 632 449 5 0 0 0 - - - 0;
#X obj 507 535 *;
#X text 381 558 Si 1 \, on fait un FA Sinon \, pas de son !;
#X obj 632 479 expr if ($f1 >= 430 && $f1 <= 573 \, 1 \, 0);
#X floatatom 703 536 5 0 0 0 - - - 0;
#X obj 578 622 *;
#X text 445 646 Si 1 \, on fait un MI Sinon \, pas de son !;
#X obj 703 566 expr if ($f1 >= 574 && $f1 <= 717 \, 1 \, 0);
#X floatatom 751 632 5 0 0 0 - - - 0;
#X obj 626 718 *;
#X text 504 745 Si 1 \, on fait un RE Sinon \, pas de son !;
#X obj 751 662 expr if ($f1 >= 718 && $f1 <= 861 \, 1 \, 0);
#X floatatom 827 728 5 0 0 0 - - - 0;
#X obj 702 814 *;
#X text 587 839 Si 1 \, on fait un DO Sinon \, pas de son !;
#X obj 827 758 expr if ($f1 >= 862 && $f1 <= 1000 \, 1 \, 0);
#X obj 471 205 expr if ($f1 >= 0 && $f1 <= 143 \, 1 \, 0);
#X obj 1690 702 change;
#X obj 1690 727 sel 1;
#X obj 1690 752 bng 19 250 50 0 empty empty empty 0 -10 0 12 #fcfcfc #000000 #000000;
#X msg 1690 776 1 \, 0 1000;
#X obj 1690 800 vline~;
#X obj 1747 845 *~;
#X obj 1734 894 dac~;
#X obj 1783 800 osc~ 523.25;
#X text 1800 856 DO;
#X obj 1493 629 change;
#X obj 1493 654 sel 1;
#X obj 1493 679 bng 19 250 50 0 empty empty empty 0 -10 0 12 #fcfcfc #000000 #000000;
#X msg 1493 703 1 \, 0 1000;
#X obj 1493 727 vline~;
#X obj 1550 772 *~;
#X obj 1537 821 dac~;
#X obj 1297 555 change;
#X obj 1297 580 sel 1;
#X obj 1297 605 bng 19 250 50 0 empty empty empty 0 -10 0 12 #fcfcfc #000000 #000000;
#X msg 1297 629 1 \, 0 1000;
#X obj 1297 653 vline~;
#X obj 1354 698 *~;
#X obj 1341 747 dac~;
#X obj 1558 315 change;
#X obj 1558 340 sel 1;
#X obj 1558 365 bng 19 250 50 0 empty empty empty 0 -10 0 12 #fcfcfc #000000 #000000;
#X msg 1558 389 1 \, 0 1000;
#X obj 1558 413 vline~;
#X obj 1615 458 *~;
#X obj 1602 507 dac~;
#X obj 1364 241 change;
#X obj 1364 266 sel 1;
#X obj 1364 291 bng 19 250 50 0 empty empty empty 0 -10 0 12 #fcfcfc #000000 #000000;
#X msg 1364 315 1 \, 0 1000;
#X obj 1364 339 vline~;
#X obj 1421 384 *~;
#X obj 1408 433 dac~;
#X obj 1169 168 change;
#X obj 1169 193 sel 1;
#X obj 1169 218 bng 19 250 50 0 empty empty empty 0 -10 0 12 #fcfcfc #000000 #000000;
#X msg 1169 242 1 \, 0 1000;
#X obj 1169 266 vline~;
#X obj 1226 311 *~;
#X obj 1213 360 dac~;
#X obj 974 95 change;
#X obj 974 120 sel 1;
#X obj 974 145 bng 19 250 50 0 empty empty empty 0 -10 0 12 #fcfcfc #000000 #000000;
#X msg 974 169 1 \, 0 1000;
#X obj 974 193 vline~;
#X obj 1031 238 *~;
#X obj 1018 287 dac~;
#X text 1603 783 RE;
#X text 1407 709 MI;
#X text 1668 469 FA;
#X text 1474 395 SOL;
#X text 1279 322 LA;
#X text 1084 249 SI;
#X obj 1586 727 osc~ 587.33;
#X obj 1390 653 osc~ 659.26;
#X obj 1651 413 osc~ 698.46;
#X obj 1457 339 osc~ 783.99;
#X obj 1262 266 osc~ 880;
#X obj 1067 193 osc~ 987.77;
#X obj 61 205 expr if ($f1 >= 501 \, 1 \, 0);
#X connect 0 0 2 0;
#X connect 1 0 0 0;
#X connect 2 0 3 0;
#X connect 3 0 4 0;
#X connect 4 1 5 0;
#X connect 4 3 6 0;
#X connect 4 3 8 0;
#X connect 4 3 13 0;
#X connect 4 3 17 0;
#X connect 4 3 21 0;
#X connect 4 3 25 0;
#X connect 4 3 29 0;
#X connect 5 0 97 0;
#X connect 6 0 33 0;
#X connect 7 0 78 0;
#X connect 8 0 10 0;
#X connect 9 0 71 0;
#X connect 10 0 9 1;
#X connect 13 0 15 0;
#X connect 14 0 64 0;
#X connect 15 0 14 1;
#X connect 17 0 20 0;
#X connect 18 0 57 0;
#X connect 20 0 18 1;
#X connect 21 0 24 0;
#X connect 22 0 50 0;
#X connect 24 0 22 1;
#X connect 25 0 28 0;
#X connect 26 0 43 0;
#X connect 28 0 26 1;
#X connect 29 0 32 0;
#X connect 30 0 34 0;
#X connect 32 0 30 1;
#X connect 33 0 7 1;
#X connect 34 0 35 0;
#X connect 35 0 36 0;
#X connect 36 0 37 0;
#X connect 37 0 38 0;
#X connect 38 0 39 0;
#X connect 39 0 40 0;
#X connect 39 0 40 1;
#X connect 41 0 39 1;
#X connect 43 0 44 0;
#X connect 44 0 45 0;
#X connect 45 0 46 0;
#X connect 46 0 47 0;
#X connect 47 0 48 0;
#X connect 48 0 49 0;
#X connect 48 0 49 1;
#X connect 50 0 51 0;
#X connect 51 0 52 0;
#X connect 52 0 53 0;
#X connect 53 0 54 0;
#X connect 54 0 55 0;
#X connect 55 0 56 0;
#X connect 55 0 56 1;
#X connect 57 0 58 0;
#X connect 58 0 59 0;
#X connect 59 0 60 0;
#X connect 60 0 61 0;
#X connect 61 0 62 0;
#X connect 62 0 63 0;
#X connect 62 0 63 1;
#X connect 64 0 65 0;
#X connect 65 0 66 0;
#X connect 66 0 67 0;
#X connect 67 0 68 0;
#X connect 68 0 69 0;
#X connect 69 0 70 0;
#X connect 69 0 70 1;
#X connect 71 0 72 0;
#X connect 72 0 73 0;
#X connect 73 0 74 0;
#X connect 74 0 75 0;
#X connect 75 0 76 0;
#X connect 76 0 77 0;
#X connect 76 0 77 1;
#X connect 78 0 79 0;
#X connect 79 0 80 0;
#X connect 80 0 81 0;
#X connect 81 0 82 0;
#X connect 82 0 83 0;
#X connect 83 0 84 0;
#X connect 83 0 84 1;
#X connect 91 0 48 1;
#X connect 92 0 55 1;
#X connect 93 0 62 1;
#X connect 94 0 69 1;
#X connect 95 0 76 1;
#X connect 96 0 83 1;
#X connect 97 0 7 0;
#X connect 97 0 9 0;
#X connect 97 0 14 0;
#X connect 97 0 18 0;
#X connect 97 0 22 0;
#X connect 97 0 26 0;
#X connect 97 0 30 0;
