#N canvas 0 25 1920 966 12;
#X obj 70 54 netreceive -u -b;
#X msg 70 25 listen 8000;
#X obj 70 83 oscparse;
#X obj 70 112 list trim;
#X floatatom 101 185 5 0 0 0 - - - 0;
#X floatatom 294 184 5 0 0 0 - - - 0;
#X floatatom 499 185 5 0 0 0 - - - 0;
#X obj 294 222 mtof;
#X obj 70 143 unpack 0 0 0 0;
#X obj 294 383 osc~;
#X obj 282 424 dac~;
#X obj 294 249 log;
#X floatatom 294 276 5 0 0 0 - - - 0;
#X obj 294 328 + 200;
#X floatatom 294 356 5 0 0 0 - - - 0;
#X obj 348 222 mtof;
#X obj 348 383 osc~;
#X obj 336 424 dac~;
#X obj 348 249 log;
#X floatatom 348 276 5 0 0 0 - - - 0;
#X obj 348 328 + 200;
#X floatatom 348 356 5 0 0 0 - - - 0;
#X obj 238 222 mtof;
#X obj 238 383 osc~;
#X obj 226 424 dac~;
#X obj 238 249 log;
#X floatatom 238 276 5 0 0 0 - - - 0;
#X obj 238 328 + 200;
#X floatatom 238 356 5 0 0 0 - - - 0;
#X obj 499 223 mtof;
#X obj 499 384 osc~;
#X obj 487 425 dac~;
#X obj 499 250 log;
#X floatatom 499 277 5 0 0 0 - - - 0;
#X obj 499 329 + 200;
#X floatatom 499 357 5 0 0 0 - - - 0;
#X obj 553 223 mtof;
#X obj 553 384 osc~;
#X obj 541 425 dac~;
#X obj 553 250 log;
#X floatatom 553 277 5 0 0 0 - - - 0;
#X obj 553 329 + 200;
#X floatatom 553 357 5 0 0 0 - - - 0;
#X obj 443 223 mtof;
#X obj 443 384 osc~;
#X obj 431 425 dac~;
#X obj 443 250 log;
#X floatatom 443 277 5 0 0 0 - - - 0;
#X obj 443 329 + 200;
#X floatatom 443 357 5 0 0 0 - - - 0;
#X obj 101 222 mtof;
#X obj 101 383 osc~;
#X obj 89 424 dac~;
#X obj 101 249 log;
#X floatatom 101 276 5 0 0 0 - - - 0;
#X obj 101 328 + 200;
#X floatatom 101 356 5 0 0 0 - - - 0;
#X obj 155 222 mtof;
#X obj 155 383 osc~;
#X obj 143 424 dac~;
#X obj 155 249 log;
#X floatatom 155 276 5 0 0 0 - - - 0;
#X obj 155 328 + 200;
#X floatatom 155 356 5 0 0 0 - - - 0;
#X obj 45 222 mtof;
#X obj 45 383 osc~;
#X obj 33 424 dac~;
#X obj 45 249 log;
#X floatatom 45 276 5 0 0 0 - - - 0;
#X obj 45 328 + 200;
#X floatatom 45 356 5 0 0 0 - - - 0;
#X obj 45 302 * 10;
#X obj 101 302 * 15;
#X obj 155 302 * 20;
#X obj 238 302 * 25;
#X obj 294 302 * 30;
#X obj 348 302 * 35;
#X obj 443 303 * 40;
#X obj 499 303 * 45;
#X obj 553 303 * 50;
#X connect 0 0 2 0;
#X connect 1 0 0 0;
#X connect 2 0 3 0;
#X connect 3 0 8 0;
#X connect 4 0 50 0;
#X connect 4 0 64 0;
#X connect 4 0 57 0;
#X connect 5 0 7 0;
#X connect 5 0 15 0;
#X connect 5 0 22 0;
#X connect 6 0 29 0;
#X connect 6 0 43 0;
#X connect 6 0 36 0;
#X connect 7 0 11 0;
#X connect 8 1 4 0;
#X connect 8 2 5 0;
#X connect 8 3 6 0;
#X connect 9 0 10 0;
#X connect 9 0 10 1;
#X connect 11 0 12 0;
#X connect 12 0 75 0;
#X connect 13 0 14 0;
#X connect 14 0 9 0;
#X connect 15 0 18 0;
#X connect 16 0 17 0;
#X connect 16 0 17 1;
#X connect 18 0 19 0;
#X connect 19 0 76 0;
#X connect 20 0 21 0;
#X connect 21 0 16 0;
#X connect 22 0 25 0;
#X connect 23 0 24 0;
#X connect 23 0 24 1;
#X connect 25 0 26 0;
#X connect 26 0 74 0;
#X connect 27 0 28 0;
#X connect 28 0 23 0;
#X connect 29 0 32 0;
#X connect 30 0 31 0;
#X connect 30 0 31 1;
#X connect 32 0 33 0;
#X connect 33 0 78 0;
#X connect 34 0 35 0;
#X connect 35 0 30 0;
#X connect 36 0 39 0;
#X connect 37 0 38 0;
#X connect 37 0 38 1;
#X connect 39 0 40 0;
#X connect 40 0 79 0;
#X connect 41 0 42 0;
#X connect 42 0 37 0;
#X connect 43 0 46 0;
#X connect 44 0 45 0;
#X connect 44 0 45 1;
#X connect 46 0 47 0;
#X connect 47 0 77 0;
#X connect 48 0 49 0;
#X connect 49 0 44 0;
#X connect 50 0 53 0;
#X connect 51 0 52 0;
#X connect 51 0 52 1;
#X connect 53 0 54 0;
#X connect 54 0 72 0;
#X connect 55 0 56 0;
#X connect 56 0 51 0;
#X connect 57 0 60 0;
#X connect 58 0 59 0;
#X connect 58 0 59 1;
#X connect 60 0 61 0;
#X connect 61 0 73 0;
#X connect 62 0 63 0;
#X connect 63 0 58 0;
#X connect 64 0 67 0;
#X connect 65 0 66 0;
#X connect 65 0 66 1;
#X connect 67 0 68 0;
#X connect 68 0 71 0;
#X connect 69 0 70 0;
#X connect 70 0 65 0;
#X connect 71 0 69 0;
#X connect 72 0 55 0;
#X connect 73 0 62 0;
#X connect 74 0 27 0;
#X connect 75 0 13 0;
#X connect 76 0 20 0;
#X connect 77 0 48 0;
#X connect 78 0 34 0;
#X connect 79 0 41 0;
