#N canvas 0 25 1920 966 12;
#X obj 70 54 netreceive -u -b;
#X msg 70 25 listen 8000;
#X obj 70 83 oscparse;
#X obj 70 112 list trim;
#X floatatom 160 186 5 0 0 0 - - - 0;
#X obj 70 143 unpack 0 0 0 0;
#X obj 85 540 osc~;
#X obj 85 540 osc~;
#X obj 85 509 mtof;
#X obj 36 269 expr if ($f1 >= 0 && $f1 <= 143 \, 60 \, 0);
#X obj 338 269 expr if ($f1 >= 144 && $f1 <= 286 \, 62 \, 0);
#X floatatom 215 186 5 0 0 0 - - - 0;
#X floatatom 271 186 5 0 0 0 - - - 0;
#X floatatom 323 186 5 0 0 0 - - - 0;
#X floatatom 376 185 5 0 0 0 - - - 0;
#X floatatom 431 184 5 0 0 0 - - - 0;
#X floatatom 483 184 5 0 0 0 - - - 0;
#X obj 85 573 dac~;
#X obj 132 540 osc~;
#X obj 132 540 osc~;
#X obj 132 509 mtof;
#X obj 132 573 dac~;
#X obj 180 541 osc~;
#X obj 180 541 osc~;
#X obj 180 510 mtof;
#X obj 180 574 dac~;
#X obj 226 541 osc~;
#X obj 226 541 osc~;
#X obj 226 510 mtof;
#X obj 226 574 dac~;
#X obj 273 542 osc~;
#X obj 273 542 osc~;
#X obj 273 511 mtof;
#X obj 273 575 dac~;
#X obj 321 541 osc~;
#X obj 321 541 osc~;
#X obj 321 510 mtof;
#X obj 321 574 dac~;
#X obj 369 542 osc~;
#X obj 369 542 osc~;
#X obj 369 511 mtof;
#X obj 369 575 dac~;
#X obj 657 268 expr if ($f1 >= 287 && $f1 <= 429 \, 64 \, 0);
#X obj 966 269 expr if ($f1 >= 430 && $f1 <= 573 \, 65 \, 0);
#X obj 1274 269 expr if ($f1 >= 574 && $f1 <= 717 \, 67 \, 0);
#X obj 1583 268 expr if ($f1 >= 718 && $f1 <= 861 \, 69 \, 0);
#X obj 1010 716 expr if ($f1 >= 862 && $f1 <= 1000 \, 71 \, 0);
#X connect 0 0 2 0;
#X connect 1 0 0 0;
#X connect 2 0 3 0;
#X connect 3 0 5 0;
#X connect 4 0 9 0;
#X connect 5 3 4 0;
#X connect 5 3 11 0;
#X connect 5 3 12 0;
#X connect 5 3 13 0;
#X connect 5 3 14 0;
#X connect 5 3 15 0;
#X connect 5 3 16 0;
#X connect 6 0 17 0;
#X connect 8 0 6 0;
#X connect 9 0 8 0;
#X connect 10 0 20 0;
#X connect 11 0 10 0;
#X connect 12 0 42 0;
#X connect 13 0 43 0;
#X connect 14 0 44 0;
#X connect 15 0 45 0;
#X connect 16 0 46 0;
#X connect 18 0 21 0;
#X connect 20 0 18 0;
#X connect 22 0 25 0;
#X connect 24 0 22 0;
#X connect 26 0 29 0;
#X connect 28 0 26 0;
#X connect 30 0 33 0;
#X connect 32 0 30 0;
#X connect 34 0 37 0;
#X connect 36 0 34 0;
#X connect 38 0 41 0;
#X connect 40 0 38 0;
#X connect 42 0 24 0;
#X connect 43 0 28 0;
#X connect 44 0 32 0;
#X connect 45 0 36 0;
#X connect 46 0 40 0;
