#N canvas 0 0 1920 966 12;
#X obj 70 54 netreceive -u -b;
#X msg 70 25 listen 8000;
#X obj 70 83 oscparse;
#X obj 70 112 list trim;
#X floatatom 837 162 5 0 0 0 - - - 0;
#X obj 70 143 unpack 0 0 0 0;
#X obj 103 736 catch~ \$0-output;
#X obj 103 778 /~ 5;
#X obj 103 823 dac~ 1 2;
#X msg 686 373 0 \, 1 200;
#X obj 686 414 line~;
#X obj 686 456 sqrt~;
#X obj 686 499 *~ 20;
#X obj 687 540 -~ 0.25;
#X obj 688 582 cos~;
#X obj 688 624 lop~ 1000;
#X obj 689 666 throw~ \$0-output;
#X text 102 706 // SORTIE GLOBALE;
#X obj 996 379 t b b;
#X msg 996 418 1 \, 0 100;
#X obj 996 458 line~;
#X obj 996 498 pow~ 4;
#X obj 995 540 *~;
#X obj 995 581 +~;
#X obj 995 628 lop~ 1000;
#X obj 996 670 throw~ \$0-output;
#X obj 1159 458 line~;
#X obj 1159 498 pow~ 4;
#X obj 1158 540 *~;
#X msg 1159 418 1 \, 0 200;
#X obj 1066 498 osc~ 200;
#X obj 1274 418 noise~;
#X obj 1274 457 hip~ 3000;
#X obj 1273 496 bp~ 5000 2;
#X obj 686 220 expr if ($f1 >= 0 && $f1 <= 500 \, 1 \, 0);
#X floatatom 101 221 5 0 0 0 - - - 0;
#X obj 101 458 line~;
#X obj 102 630 throw~ \$0-output;
#X obj 101 258 expr if ($f1 >= 501 && $f1 <= 1000 \, 1 \, 0);
#X msg 101 417 1 \, 0 100;
#X obj 101 500 pow~ 4;
#X obj 101 543 *~;
#X obj 102 584 *~ 4;
#X obj 418 221 phasor~ 350;
#X obj 528 221 phasor~ 800;
#X obj 418 258 *~ 2;
#X obj 418 299 -~ 1;
#X obj 419 339 +~;
#X obj 419 381 +~;
#X obj 529 258 *~ 2;
#X obj 529 299 -~ 1;
#X obj 585 300 noise~;
#X obj 584 340 /~ 4;
#X obj 419 424 hip~ 8000;
#X obj 419 460 hip~ 8000;
#X obj 419 497 hip~ 8000;
#X text 765 373 GROSSE CAISSE;
#X text 1050 370 CAISSE CLAIRE;
#X text 1069 473 TAMBOUR;
#X text 180 417 CHARLESTON;
#X obj 263 735 tgl 24 0 empty empty empty 17 7 0 12 #00faff #000000 #000000 0 1;
#X obj 263 780 metro 200;
#X obj 263 824 tabwrite~ \$0-score;
#N canvas 0 50 450 250 (subpatch) 0;
#X array \$0-score 8820 float 0;
#X coords 0 1 8819 -1 200 140 1;
#X restore 428 721 graph;
#X obj 101 297 change;
#X obj 101 333 sel 1;
#X obj 101 372 bng 19 250 50 0 empty empty empty 0 -10 0 12 #fcfcfc #000000 #000000;
#X obj 686 258 change;
#X obj 686 294 sel 1;
#X obj 686 333 bng 19 250 50 0 empty empty empty 0 -10 0 12 #fcfcfc #000000 #000000;
#X obj 996 261 change;
#X obj 996 297 sel 1;
#X obj 996 336 bng 19 250 50 0 empty empty empty 0 -10 0 12 #fcfcfc #000000 #000000;
#X obj 996 221 expr if ($f1 >= 501 && $f1 <= 1000 \, 1 \, 0);
#X connect 0 0 2 0;
#X connect 1 0 0 0;
#X connect 2 0 3 0;
#X connect 3 0 5 0;
#X connect 4 0 34 0;
#X connect 4 0 73 0;
#X connect 5 1 35 0;
#X connect 5 3 4 0;
#X connect 6 0 7 0;
#X connect 6 0 62 0;
#X connect 7 0 8 0;
#X connect 7 0 8 1;
#X connect 9 0 10 0;
#X connect 10 0 11 0;
#X connect 11 0 12 0;
#X connect 12 0 13 0;
#X connect 13 0 14 0;
#X connect 14 0 15 0;
#X connect 15 0 16 0;
#X connect 18 0 19 0;
#X connect 18 1 29 0;
#X connect 19 0 20 0;
#X connect 20 0 21 0;
#X connect 21 0 22 0;
#X connect 22 0 23 0;
#X connect 23 0 24 0;
#X connect 24 0 25 0;
#X connect 26 0 27 0;
#X connect 27 0 28 0;
#X connect 28 0 23 1;
#X connect 29 0 26 0;
#X connect 30 0 22 1;
#X connect 31 0 32 0;
#X connect 32 0 33 0;
#X connect 33 0 28 1;
#X connect 34 0 67 0;
#X connect 35 0 38 0;
#X connect 36 0 40 0;
#X connect 38 0 64 0;
#X connect 39 0 36 0;
#X connect 40 0 41 0;
#X connect 41 0 42 0;
#X connect 42 0 37 0;
#X connect 43 0 45 0;
#X connect 44 0 49 0;
#X connect 45 0 46 0;
#X connect 46 0 47 0;
#X connect 47 0 48 0;
#X connect 48 0 53 0;
#X connect 49 0 50 0;
#X connect 50 0 47 1;
#X connect 51 0 52 0;
#X connect 52 0 48 1;
#X connect 53 0 54 0;
#X connect 54 0 55 0;
#X connect 55 0 41 1;
#X connect 60 0 61 0;
#X connect 61 0 62 0;
#X connect 64 0 65 0;
#X connect 65 0 66 0;
#X connect 66 0 39 0;
#X connect 67 0 68 0;
#X connect 68 0 69 0;
#X connect 69 0 9 0;
#X connect 70 0 71 0;
#X connect 71 0 72 0;
#X connect 72 0 18 0;
#X connect 73 0 70 0;
